<svg width="82" height="62" viewBox="0 0 82 62" fill="none" xmlns="http://www.w3.org/2000/svg">
<rect width="82" height="62" rx="12" fill="#313535"/>
<path d="M37.8073 8C36.0329 8 34.5944 9.21772 34.5944 10.7198C34.5944 12.2221 36.0329 13.4398 37.8073 13.4396H66.7871C68.5615 13.4396 70 12.2221 70 10.7198C70 9.21772 68.5615 8 66.7871 8H37.8073ZM21.7339 8C15.7159 8 11 12.4782 11 17.8594V19.6288H17.4257V17.8594C17.4257 15.353 19.4385 13.4396 21.7339 13.4396H37.8073V8H21.7339ZM11 25.0837V43.1331C11 48.5143 15.7159 53 21.7339 53H39.5598V47.5604H21.7339C19.4385 47.5604 17.4257 45.6395 17.4257 43.1331V25.0837H11ZM39.5598 47.5604C37.7854 47.5604 36.3469 48.7782 36.3469 50.2802C36.3469 51.7825 37.7854 53 39.5598 53H66.7871C68.5615 53 70 51.7825 70 50.2802C70 48.7782 68.5615 47.5607 66.7871 47.5604H39.5598Z" fill="#8EE600"/>
</svg>
