<svg width="25" height="25" viewBox="0 0 25 25" fill="none" xmlns="http://www.w3.org/2000/svg">
<path d="M16.8854 9.97C16.8854 11.1635 16.4113 12.3081 15.5674 13.152C14.7234 13.9959 13.5788 14.47 12.3854 14.47C11.1919 14.47 10.0473 13.9959 9.2034 13.152C8.35948 12.3081 7.88538 11.1635 7.88538 9.97C7.88538 8.77653 8.35948 7.63193 9.2034 6.78802C10.0473 5.94411 11.1919 5.47 12.3854 5.47C13.5788 5.47 14.7234 5.94411 15.5674 6.78802C16.4113 7.63193 16.8854 8.77653 16.8854 9.97Z" fill="white"/>
<path fill-rule="evenodd" clip-rule="evenodd" d="M0.385376 12.97C0.385376 9.7874 1.64966 6.73516 3.90009 4.48472C6.15053 2.23428 9.20278 0.970001 12.3854 0.970001C15.568 0.970001 18.6202 2.23428 20.8707 4.48472C23.1211 6.73516 24.3854 9.7874 24.3854 12.97C24.3854 16.1526 23.1211 19.2048 20.8707 21.4553C18.6202 23.7057 15.568 24.97 12.3854 24.97C9.20278 24.97 6.15053 23.7057 3.90009 21.4553C1.64966 19.2048 0.385376 16.1526 0.385376 12.97ZM12.3854 2.47C10.408 2.47011 8.47093 3.02855 6.79698 4.08104C5.12303 5.13354 3.7803 6.63732 2.92332 8.41929C2.06634 10.2013 1.72996 12.189 1.95287 14.1537C2.17579 16.1185 2.94896 17.9803 4.18338 19.525C5.24838 17.809 7.59288 15.97 12.3854 15.97C17.1779 15.97 19.5209 17.8075 20.5874 19.525C21.8218 17.9803 22.595 16.1185 22.8179 14.1537C23.0408 12.189 22.7044 10.2013 21.8474 8.41929C20.9905 6.63732 19.6477 5.13354 17.9738 4.08104C16.2998 3.02855 14.3627 2.47011 12.3854 2.47Z" fill="white"/>
</svg>
